<svg id="Layer_1" data-name="Layer 1" xmlns="http://www.w3.org/2000/svg" xmlns:xlink="http://www.w3.org/1999/xlink" viewBox="0 0 599.83 945.7"><defs><style>.cls-1,.cls-10,.cls-12,.cls-5,.cls-6,.cls-7,.cls-9{fill:none;}.cls-2{fill:#231f20;}.cls-3,.cls-4{fill:#fff;}.cls-3{stroke:#fff;}.cls-14,.cls-3,.cls-4{stroke-linecap:round;}.cls-10,.cls-12,.cls-14,.cls-3,.cls-4,.cls-5,.cls-6,.cls-7,.cls-9{stroke-linejoin:round;}.cls-10,.cls-12,.cls-3,.cls-4,.cls-5{stroke-width:1.07px;}.cls-10,.cls-12,.cls-4{stroke:#000;}.cls-5{stroke:#686868;}.cls-6{stroke:#e69f00;stroke-dasharray:8.54 8.54;}.cls-6,.cls-7{stroke-width:2.13px;}.cls-14,.cls-7{stroke:#55b3e9;}.cls-7{stroke-dasharray:2.13 6.4 8.54 6.4;}.cls-8{clip-path:url(#clip-path);}.cls-9{stroke:#009d73;stroke-width:4.27px;}.cls-11,.cls-16,.cls-17,.cls-18,.cls-19{font-size:16px;}.cls-11,.cls-22{font-family:Helvetica;}.cls-12{stroke-dasharray:1.07 3.2;}.cls-13,.cls-17{fill:#e69f00;}.cls-14{fill:#55b3e9;stroke-width:0.71px;}.cls-15,.cls-18{fill:#009d73;}.cls-16{font-family:Symbol;}.cls-17,.cls-18,.cls-19,.cls-20,.cls-21{font-family:ArialMT, Arial;}.cls-19{fill:#51bfee;}.cls-20{font-size:40.01px;}.cls-21{font-size:34.92px;}.cls-22{font-size:40px;}</style><clipPath id="clip-path" transform="translate(0 -17.6)"><rect class="cls-1" x="41.72" y="23.61" width="544.55" height="256.55"/></clipPath><symbol id="Arrow_25" data-name="Arrow 25" viewBox="0 0 45.72 26.28"><rect class="cls-1" width="45.72" height="26.28"/><polygon class="cls-2" points="0 16.31 22.93 16.31 22.93 26.28 45.72 13.14 22.93 0 22.93 9.97 0 9.97 0 16.31"/></symbol></defs><rect class="cls-3" x="15.75" y="0.54" width="576" height="288"/><rect class="cls-4" x="41.72" y="6.02" width="544.55" height="256.55"/><path class="cls-5" d="M66.47,268.51H82l.47,0,.47,0,.47,0,.47,0,.48,0,.47,0,.47,0,.47,0,.47,0,.47,0,.47-.05.48-.06.47-.06.47-.07.47-.08.47-.08.47-.1.47-.11.48-.11.47-.13.47-.14.47-.16.47-.17.47-.19.47-.21.48-.22.47-.25.47-.27.47-.3.47-.32.47-.35.48-.38.47-.42.47-.45.47-.48.47-.53.47-.57.47-.62.48-.66.47-.71.47-.77.47-.83.47-.88.47-.95.47-1,.48-1.08.47-1.17.47-1.22.47-1.32.47-1.39.47-1.47.47-1.56.48-1.66.47-1.75L108,241l.47-1.95.47-2.05.47-2.16.48-2.26.47-2.38.47-2.48.47-2.6.47-2.71.47-2.83.47-2.94.48-3.06.47-3.17.47-3.3.47-3.41.47-3.51.47-3.62.47-3.74.48-3.84.47-3.93.47-4,.47-4.13.47-4.22.47-4.3.47-4.38.48-4.45.47-4.51.47-4.57.47-4.62.47-4.65.47-4.68.47-4.71.48-4.71.47-4.71.47-4.71.47-4.68.47-4.65.47-4.6.48-4.55.47-4.48.47-4.4.47-4.31.47-4.2.47-4.1.47-4,.48-3.82.47-3.68.47-3.51.47-3.35.47-3.16.47-3,.47-2.77.48-2.56.47-2.34.47-2.11.47-1.89.47-1.64.47-1.4.47-1.16.48-.9.47-.64.47-.39.47-.13.47.13.47.39.48.64.47.9.47,1.16.47,1.4.47,1.64.47,1.89.47,2.11.48,2.34.47,2.56.47,2.77.47,3,.47,3.16.47,3.35.47,3.51.48,3.68.47,3.82.47,4,.47,4.1.47,4.2.47,4.31.47,4.4.48,4.48.47,4.55.47,4.6.47,4.65.47,4.68.47,4.71.47,4.71.48,4.71.47,4.71.47,4.68.47,4.65.47,4.62.47,4.57.48,4.51.47,4.45.47,4.38.47,4.3.47,4.22L157,181l.47,4,.48,3.93.47,3.84.47,3.74.47,3.62.47,3.51.47,3.41.47,3.3.48,3.17.47,3.06.47,2.94.47,2.83.47,2.7.47,2.61.47,2.48.48,2.38.47,2.26.47,2.16.47,2,.47,2,.47,1.85.47,1.74.48,1.66.47,1.56.47,1.48.47,1.39.47,1.31.47,1.23.48,1.16.47,1.08.47,1,.47.95.47.89.47.82.47.78.48.71.47.66.47.62.47.57.47.53.47.48.47.45.48.42.47.38.47.35.47.32.47.3.47.27.47.25.48.22.47.21.47.19.47.17.47.16.47.14.48.13.47.11.47.11.47.1.47.08.47.08.47.07.48.06.47.06.47.05.47,0,.47,0,.47,0,.47,0,.48,0,.47,0,.47,0,.47,0,.47,0,.47,0H537.47m0,0h24" transform="translate(0 -17.6)"/><polyline class="cls-6" points="145.69 57.98 159.82 92.95 173.97 121.58 188.12 145.03 202.25 164.22 216.41 179.94 230.54 192.79 244.69 203.34 258.83 211.96 272.99 219.01 287.13 224.79 301.26 229.53 315.42 233.41 329.56 236.57 343.7 239.18 357.85 241.31 372 243.04 386.13 244.47 400.27 245.63 414.43 246.59 428.56 247.38 442.71 248.01 456.86 248.53 471 248.97 485.14 249.31 499.29 249.6 513.43 249.84 527.58 250.03 541.73 250.19 555.87 250.32"/><polyline class="cls-7" points="162.66 163.22 176.79 167.5 190.94 171.56 205.09 175.43 219.24 179.1 233.38 182.62 247.53 185.94 261.67 189.12 275.81 192.13 289.95 195 304.1 197.72 318.25 200.31 332.38 202.78 346.54 205.13 360.68 207.35 374.81 209.49 388.96 211.5 403.11 213.43 417.25 215.25 431.39 217 445.55 218.65 459.69 220.22 473.82 221.72 487.98 223.13 502.12 224.5 516.26 225.78 530.4 227 544.55 228.18 558.7 229.28"/><g class="cls-8"><polyline class="cls-9" points="151.34 110.59 165.49 126.73 179.63 140.41 193.78 152.03 207.91 161.94 222.06 170.47 236.21 177.81 250.34 184.16 264.5 189.72 278.63 194.57 292.79 198.87 306.93 202.66 321.07 206.04 335.21 209.07 349.36 211.81 363.5 214.28 377.64 216.53 391.8 218.59 405.94 220.47 420.08 222.21 434.23 223.81 448.37 225.31 462.51 226.69 476.65 227.99 490.81 229.19 504.94 230.34 519.1 231.41 533.24 232.41 547.38 233.34"/><line class="cls-10" x1="137.19" y1="262.56" x2="137.19" y2="6.02"/></g><path class="cls-5" d="M144.26,35.27v36.8m-3.85-6.67,3.85,6.67,3.85-6.67m17.37-30.13v142m-3.85-6.66,3.85,6.66,3.85-6.66m-18-135.37v89.41M147.49,118l3.84,6.66,3.85-6.66m-18-82.75h28.29M137.19,75.58h7.07m-6.66,3.84,6.66-3.84-6.66-3.85m-.41,109.08h28.29m-6.67,3.85,6.67-3.85L158.81,177m-21.62-48.77h14.14M144.67,132l6.66-3.85-6.66-3.85" transform="translate(0 -17.6)"/><text class="cls-11" transform="translate(282.89 279.54)">time (ns)</text><text class="cls-11" transform="translate(32.72 164.09) rotate(-90)">Intensity</text><rect class="cls-3" x="18" y="345.83" width="576" height="288"/><rect class="cls-4" x="72.29" y="351.31" width="516.23" height="235.47"/><path class="cls-12" d="M547.27,515.23,215.48,407.93m331.79,107.3L215.48,407.93" transform="translate(0 -17.6)"/><polyline class="cls-10" points="565.06 569.06 563.64 555.1 561.28 541.24 558 527.56 553.8 514.1 548.7 500.91 542.72 488.06 535.89 475.59 528.23 463.55 519.78 451.99 510.56 440.97 500.62 430.51 490 420.67 478.73 411.48 466.86 402.98 454.45 395.21 441.54 388.2 428.18 381.97 414.43 376.54 400.34 371.96 385.97 368.22 371.38 365.34 356.62 363.35 341.76 362.24 326.85 362.01 311.96 362.68 297.14 364.24 282.46 366.67 267.97 369.98 253.74 374.15 239.81 379.15 226.25 384.98 213.11 391.61 200.44 399 188.29 407.14 176.72 415.99 165.77 425.51 155.48 435.66 145.9 446.41 137.06 457.71 129 469.51 121.75 481.77 115.34 494.44 109.8 507.47 105.15 520.8 101.41 534.38 98.58 548.15 96.7 562.07 95.75 576.07"/><rect class="cls-13" x="540.51" y="490.88" width="13.52" height="13.51"/><path class="cls-14" d="M222.16,408a6.76,6.76,0,1,0-6.76,6.76,6.76,6.76,0,0,0,6.76-6.76" transform="translate(0 -17.6)"/><rect class="cls-15" x="281.11" y="424.34" width="12.57" height="12.57" transform="translate(-220.32 311.75) rotate(-45)"/><text class="cls-11" transform="translate(45.13 588.83)">0.0</text><text class="cls-11" transform="translate(45.13 367.73)">0.5</text><text class="cls-11" transform="translate(84.52 603.19)">0.0</text><text class="cls-11" transform="translate(319.46 603.19)">0.5</text><text class="cls-11" transform="translate(554.41 603.19)">1.0</text><text class="cls-11" transform="translate(279.55 621.25)">G=M</text><text class="cls-16" transform="translate(317.63 621.25)">×</text><text class="cls-11" transform="translate(329.37 621.25)">cos(</text><text class="cls-16" transform="translate(359.6 621.25)"><tspan xml:space="preserve"> φ</tspan></text><text class="cls-16" transform="translate(371.94 621.25)"> </text><text class="cls-11" transform="translate(375.93 621.25)">)</text><text class="cls-11" transform="translate(35.27 516.78) rotate(-90)">S=M</text><text class="cls-16" transform="translate(35.27 480.47) rotate(-90)">×</text><text class="cls-11" transform="translate(35.27 468.73) rotate(-90)">sin(</text><text class="cls-16" transform="translate(35.27 442.95) rotate(-90)"><tspan xml:space="preserve"> φ</tspan></text><text class="cls-16" transform="translate(35.27 430.61) rotate(-90)"> </text><text class="cls-11" transform="translate(35.27 426.61) rotate(-90)">)</text><rect class="cls-3" x="23.3" y="657.17" width="576" height="288"/><rect class="cls-4" x="77.59" y="662.65" width="516.23" height="235.47"/><path class="cls-12" d="M552.57,826.57,220.78,719.27m331.79,107.3L220.78,719.27" transform="translate(0 -17.6)"/><polyline class="cls-10" points="570.36 880.39 568.94 866.43 566.58 852.58 563.3 838.89 559.1 825.43 554 812.25 548.02 799.39 541.19 786.92 533.53 774.88 525.08 763.33 515.86 752.3 505.92 741.85 495.3 732 484.03 722.82 472.16 714.32 459.75 706.54 446.84 699.53 433.48 693.3 419.73 687.88 405.64 683.29 391.27 679.55 376.68 676.67 361.92 674.68 347.06 673.58 332.15 673.35 317.26 674.01 302.44 675.58 287.76 678 273.27 681.32 259.04 685.49 245.11 690.49 231.55 696.32 218.41 702.95 205.74 710.34 193.59 718.48 182.02 727.33 171.07 736.85 160.78 747 151.2 757.75 142.36 769.04 134.3 780.85 127.05 793.11 120.64 805.77 115.1 818.8 110.45 832.13 106.71 845.72 103.88 859.49 102 873.4 101.05 887.4"/><rect class="cls-13" x="545.81" y="802.22" width="13.52" height="13.51"/><path class="cls-14" d="M227.46,719.29a6.76,6.76,0,1,0-6.76,6.76,6.77,6.77,0,0,0,6.76-6.76" transform="translate(0 -17.6)"/><rect class="cls-15" x="286.41" y="735.68" width="12.57" height="12.57" transform="translate(-438.92 406.69) rotate(-45)"/><polygon class="cls-15" points="386.68 741.5 398.65 762.24 374.7 762.24 386.68 741.5"/><text class="cls-11" transform="translate(50.42 900.17)">0.0</text><text class="cls-11" transform="translate(50.42 679.07)">0.5</text><text class="cls-11" transform="translate(89.81 914.52)">0.0</text><text class="cls-11" transform="translate(324.76 914.52)">0.5</text><text class="cls-11" transform="translate(559.71 914.52)">1.0</text><text class="cls-11" transform="translate(284.85 932.59)">G=M</text><text class="cls-16" transform="translate(322.93 932.59)">×</text><text class="cls-11" transform="translate(334.67 932.59)">cos(</text><text class="cls-16" transform="translate(364.9 932.59)"><tspan xml:space="preserve"> φ</tspan></text><text class="cls-16" transform="translate(377.24 932.59)"> </text><text class="cls-11" transform="translate(381.23 932.59)">)</text><text class="cls-11" transform="translate(40.56 828.12) rotate(-90)">S=M</text><text class="cls-16" transform="translate(40.56 791.81) rotate(-90)">×</text><text class="cls-11" transform="translate(40.56 780.07) rotate(-90)">sin(</text><text class="cls-16" transform="translate(40.56 754.29) rotate(-90)"><tspan xml:space="preserve"> φ</tspan></text><text class="cls-16" transform="translate(40.56 741.95) rotate(-90)"> </text><text class="cls-11" transform="translate(40.56 737.95) rotate(-90)">)</text><text class="cls-17" transform="translate(227.46 241.05)">Species 1</text><text class="cls-18" transform="translate(204.08 154.15)">Sample</text><text class="cls-17" transform="translate(462.8 511.75)">Species 1</text><text class="cls-19" transform="translate(510.31 212.73)">Species 2</text><text class="cls-20" transform="translate(169.33 41.14) scale(1.06 1)">M</text><text class="cls-21" transform="translate(106.07 157.34) scale(1.3 1)">Φ</text><text class="cls-19" transform="translate(144.67 421.92)">Species 2</text><text class="cls-18" transform="translate(267.55 443.53)">Sample</text><text class="cls-19" transform="translate(155.18 724.36)">Species 2</text><text class="cls-18" transform="translate(244.53 749.89)">Sample</text><text class="cls-18" transform="translate(359.02 783.88)">Sample + <tspan x="0" y="19.2">treatment</tspan></text><use width="45.72" height="26.28" transform="matrix(2.87, 1.02, -0.58, 1.62, 255.59, 758.6)" xlink:href="#Arrow_25"/><text class="cls-17" transform="translate(486.06 836.44)">Species 1</text><text class="cls-22" transform="translate(0 88.69)">A</text><text class="cls-22" transform="translate(0 413.03)">B</text><text class="cls-22" transform="translate(0.59 724.36)">C</text></svg>